:SAMPLES-PER-SECOND 30
:FULLY-SPECIFIED
:DEGREES
390
root  -34.3655 25.8685 0.478361 -165.293 85.1893 175.561
RightUpLeg  -81.2014 -9.49787 18.3788
RightLeg  101.579 5.56642 -20.6649
RightFoot  -36.6886 -0.307416 -0.249489
RightToes  -1.33073e-015 0 -3.6325e-017
Spine  74.8386 -6.04642 5.09846
Spine1  5.76788 -1.972 -5.38163
HEad  -49.6899 2.94761 4.84183
LeftShoulder1  0.0207308 -4.51371 9.31643
LeftArm  -99.8618 -66.0397 54.9582
LeftForeArm  42.3498 -6.05636 1.28082
LeftHand  -0.244104 0.0205437 5.32207
RightShoulder  0.200674 8.86564 -7.756
RightArm  -40.9652 71.2084 22.85
RightForeArm  15.7415 8.8488 1.22381
RightHand  -24.3051 37.6782 -59.469
LeftUpLeg  -70.7982 13.1549 7.27312
LeftLeg  112.312 0.112353 -0.930128
LeftFoot  -27.4886 -2.38945 -17.8795
LeftToes  -7.82198e-011 2.46994e-011 -7.94165e-012
391
root  -33.6544 25.0752 0.467573 -162.938 85.6636 178.619
RightUpLeg  -81.1907 -8.52365 18.2775
RightLeg  105.736 7.35469 -20.8538
RightFoot  -37.4841 0.232249 2.10691
RightToes  -1.33073e-015 0 -3.6325e-017
Spine  73.7561 -5.44601 4.43351
Spine1  5.74452 -2.15309 -4.41439
HEad  -48.1894 3.56108 4.22889
LeftShoulder1  -0.048451 -6.10679 10.1994
LeftArm  -94.302 -64.3142 50.1526
LeftForeArm  42.1947 -5.60199 1.69542
LeftHand  -0.244104 0.0205437 5.32207
RightShoulder  0.46851 9.0573 -5.34638
RightArm  -31.273 71.4288 32.1861
RightForeArm  18.1143 9.7685 2.04078
RightHand  -25.9379 38.8221 -61.4187
LeftUpLeg  -70.1637 13.395 8.82665
LeftLeg  116.171 0.285636 -1.13969
LeftFoot  -27.1642 -2.49885 -18.9977
LeftToes  -7.82198e-011 2.46994e-011 -7.94165e-012
392
root  -32.929 24.3182 0.382582 -157.815 86.3092 -175.614
RightUpLeg  -81.066 -7.67205 18.1107
RightLeg  109.889 8.88463 -20.2116
RightFoot  -37.9954 0.811368 4.52323
RightToes  -1.33073e-015 0 -3.6325e-017
Spine  72.6977 -5.12447 3.85539
Spine1  5.71798 -2.46706 -3.74028
HEad  -47.3083 4.49538 3.5572
LeftShoulder1  -0.0620706 -6.99479 10.2796
LeftArm  -90.773 -63.4275 47.5769
LeftForeArm  41.0249 -4.51128 1.77014
LeftHand  -0.244104 0.0205437 5.32207
RightShoulder  0.738552 9.80879 -3.24641
RightArm  -22.3036 70.371 40.9303
RightForeArm  20.2791 11.3136 2.76013
RightHand  -27.2258 39.6956 -62.9032
LeftUpLeg  -69.3664 13.6579 10.0565
LeftLeg  119.865 0.0201708 -0.581684
LeftFoot  -26.7592 -2.59488 -20.1713
LeftToes  -7.82198e-011 2.46994e-011 -7.94165e-012
393
root  -32.1794 23.6083 0.224942 -149.821 87.0611 -166.977
RightUpLeg  -80.6008 -6.97001 17.7012
RightLeg  113.924 10.0342 -18.9892
RightFoot  -38.4617 1.38124 6.81399
RightToes  -1.33073e-015 0 -3.6325e-017
Spine  71.7555 -5.00364 3.30922
Spine1  5.62113 -2.9513 -3.25225
HEad  -46.7973 5.67354 2.88414
LeftShoulder1  -0.0562101 -7.469 10.1511
LeftArm  -87.6924 -63.3429 44.777
LeftForeArm  39.5828 -3.26578 1.74586
LeftHand  -0.244104 0.0205437 5.32207
RightShoulder  1.04769 10.5643 -1.09259
RightArm  -14.112 69.0243 48.5794
RightForeArm  22.7098 12.3571 3.30921
RightHand  -27.7435 40.0592 -63.4579
LeftUpLeg  -68.4885 13.6187 10.8917
LeftLeg  123.345 -0.714789 0.505656
LeftFoot  -25.6102 -2.45323 -20.6179
LeftToes  -7.82198e-011 2.46994e-011 -7.94165e-012
394
root  -31.3881 22.9397 -0.0225531 -129.205 87.778 -145.679
RightUpLeg  -79.635 -6.25107 17.1445
RightLeg  117.749 10.8655 -17.5787
RightFoot  -38.96 1.96 9.04767
RightToes  -1.33073e-015 0 -3.6325e-017
Spine  70.8925 -4.5938 3.38647
Spine1  4.70319 -2.74336 -2.30991
HEad  -45.5815 5.68561 1.83851
LeftShoulder1  0.208013 -10.9011 8.17739
LeftArm  -82.3542 -63.0894 40.1613
LeftForeArm  39.5811 -2.50764 1.429
LeftHand  -0.244104 0.0205437 5.32207
RightShoulder  1.55923 12.0492 1.81232
RightArm  -9.12393 65.9098 50.9707
RightForeArm  24.8566 12.6509 3.88808
RightHand  -28.6865 40.635 -64.5439
LeftUpLeg  -67.4877 13.1548 11.6563
LeftLeg  126.606 -1.68127 1.6395
LeftFoot  -23.3039 -1.96058 -19.8416
LeftToes  -7.82198e-011 2.46994e-011 -7.94165e-012
395
root  -30.5506 22.2943 -0.372996 -87.9328 87.9103 -103.832
RightUpLeg  -78.4381 -5.31914 16.4701
RightLeg  121.404 11.5019 -16.1905
RightFoot  -39.3788 2.53148 11.1958
RightToes  -1.33073e-015 0 -3.6325e-017
Spine  69.795 -3.71808 3.83233
Spine1  3.78604 -1.88936 -0.672558
HEad  -44.3141 5.0477 0.118191
LeftShoulder1  1.0041 -15.9785 3.65045
LeftArm  -76.47 -62.5724 36.8943
LeftForeArm  40.8411 -1.63747 0.495639
LeftHand  -0.244104 0.0205437 5.32207
RightShoulder  2.21933 13.6493 5.15421
RightArm  -5.79275 61.6223 49.6886
RightForeArm  26.1186 13.21 4.51188
RightHand  -30.1915 41.485 -66.3003
LeftUpLeg  -66.3071 12.5356 12.3015
LeftLeg  129.625 -2.75854 2.65889
LeftFoot  -20.4092 -1.3581 -18.5218
LeftToes  -7.82198e-011 2.46994e-011 -7.94165e-012
396
root  -29.6636 21.6814 -0.823946 -52.9865 86.8652 -68.6566
RightUpLeg  -77.3057 -4.33133 15.4636
RightLeg  124.918 11.7779 -14.602
RightFoot  -39.6846 3.05637 13.138
RightToes  -1.33073e-015 0 -3.6325e-017
Spine  68.6278 -3.78811 3.97703
Spine1  4.13396 -1.871 -0.634439
HEad  -44.6466 6.2213 -1.05046
LeftShoulder1  1.33032 -16.3979 2.00611
LeftArm  -72.4023 -63.3833 34.4062
LeftForeArm  41.2555 0.150016 -0.448018
LeftHand  -0.244104 0.0205437 5.32207
RightShoulder  2.55493 14.1331 6.88718
RightArm  -1.65321 59.4629 51.9106
RightForeArm  27.617 14.1944 4.68848
RightHand  -31.14 41.9997 -67.3865
LeftUpLeg  -65.2058 11.955 12.2754
LeftLeg  132.329 -4.25142 3.91602
LeftFoot  -17.6101 -0.852199 -17.3745
LeftToes  -7.82198e-011 2.46994e-011 -7.94165e-012
